<?xml version="1.0" encoding="UTF-8" standalone="no"?>
<svg width="32" height="32" viewBox="0 0 32 32" version="1.1" xmlns="http://www.w3.org/2000/svg">
  <g transform="scale(0.0625)">
    <!-- Document with Code -->
    <path d="M368 32H144C112.3 32 86.8 56.3 84.2 88H84c-22.1 0-40 17.9-40 40v304c0 22.1 17.9 40 40 40h224c22.1 0 40-17.9 40-40V388.2c9.8-9.9 13.9-14.1 20.2-20.9c2.7-2.1 10.3-10.1 8.8-9.5c1 0 3 0.9 3 0.9V128c0-53-43-96-96-96zm0 440H144c-4.4 0-8-3.6-8-8V128c0-4.4 3.6-8 8-8h224c4.4 0 8 3.6 8 8v264.2l-20 20V68c0-19.9-16.1-36-36-36H160c-19.9 0-36 16.1-36 36v360c0 19.9 16.1 36 36 36h208z" fill="#2d3748"/>
    <!-- Document Fold -->
    <path d="M400 400v40a8 8 0 0 1-8 8H144c-4.4 0-8-3.6-8-8V128c0-4.4 3.6-8 8-8h224c4.4 0 8 3.6 8 8v272h24z" fill="#2d3748"/>
    <!-- Code Lines -->
    <rect x="180" y="140" width="150" height="12" rx="6" fill="#cbd5e0"/>
    <rect x="180" y="180" width="180" height="12" rx="6" fill="#cbd5e0"/>
    <!-- Code Brackets -->
    <path d="M240 228 l-50 36 l50 36" stroke="#3B82F6" stroke-width="12" stroke-linecap="round" stroke-linejoin="round" fill="none"/>
    <path d="M300 228 l50 36 l-50 36" stroke="#3B82F6" stroke-width="12" stroke-linecap="round" stroke-linejoin="round" fill="none"/>
  </g>
  <!-- Colorful Swirl -->
  <g transform="translate(18, 4) scale(0.05)">
    <path d="M142.5 146.4c-1.4 0-2.7-.4-3.9-1.2-5.3-3.5-8.3-12.1-8.3-24.1 0-34.8 28.7-62.3 63.5-59.1 11.9 1.1 20.5 3.8 25.5 8.2 8.7 7.5 6 19.3-6.3 35.2-13.5 17.3-43.3 41-70.5 41z" fill="#3CEFAF"/>
    <path d="M186.9 61.3c12.5 1.2 21.7 4.2 26.9 8.8 8.6 7.4 6 18.7-6 34.3-13.2 17-42.6 40.7-69.2 40.7-1.2 0-2.3-.3-3.3-1-4.8-3.2-7.6-11.5-7.6-23.1 0-33.9 27.9-60.9 59.2-59.7m-.9-2c-35.5 0-64.5 28.6-64.5 62.3 0 12.5 3.2 21.5 9 25.2 1.4.9 3.1 1.4 4.5 1.4 27.9 0 58.1-24 71.9-41.3 12.8-16.1 15.4-28.6 6.2-36.6-5.3-4.5-14.1-7.3-26.3-10.5-.3-.1-.6-.3-.8-.5z" fill="#3CEFAF"/>
    <path d="M64.6 146.4c-27.2 0-57-23.7-70.5-41-12.3-15.9-15-27.6-6.3-35.2 5-4.3 13.6-7.1 25.5-8.2 34.8-3.2 63.5 24.3 63.5 59.1 0 12-3 20.6-8.3 24.1-1.2.8-2.5 1.2-3.9 1.2z" fill="#78D9F9"/>
    <path d="M20.9 61.3c31.4-1.2 59.2 25.7 59.2 59.7 0 11.6-2.7 19.9-7.6 23.1-1 .7-2.1 1-3.3 1-26.6 0-56-23.7-69.2-40.7-12-15.6-14.6-26.9-6-34.3 5.3-4.6 14.4-7.6 26.9-8.8m-.9-2c-12.2 3.2-21 6-26.3 10.5-9.2 8-6.5 20.5 6.2 36.6 13.8 17.4 44 41.3 71.9 41.3 1.4 0 3-.5 4.5-1.4 5.8-3.7 9-12.7 9-25.2 0-33.7-29-62.3-64.5-62.3-.2.1-.5.3-.8.5z" fill="#78D9F9"/>
    <path d="M93.9 235.9c-1.4 0-2.7-.4-3.9-1.2-5.3-3.5-8.3-12.1-8.3-24.1 0-34.8 28.7-62.3 63.5-59.1 11.9 1.1 20.5 3.8 25.5 8.2 8.7 7.5 6 19.3-6.3 35.2-13.5 17.4-43.3 41-70.5 41z" fill="#FB37FF"/>
    <path d="M138.3 150.9c12.5 1.2 21.7 4.2 26.9 8.8 8.6 7.4 6 18.7-6 34.3-13.2 17-42.6 40.7-69.2 40.7-1.2 0-2.3-.3-3.3-1-4.8-3.2-7.6-11.5-7.6-23.1-.1-34 27.8-61 59.2-59.7m-.9-2.1c-35.5 0-64.5 28.6-64.5 62.3 0 12.5 3.2 21.5 9 25.2 1.4.9 3.1 1.4 4.5 1.4 27.9 0 58.1-24 71.9-41.3 12.8-16.1 15.4-28.6 6.2-36.6-5.3-4.5-14.1-7.3-26.3-10.5-.3-.1-.6-.3-.8-.5z" fill="#FB37FF"/>
  </g>
</svg>
